<?xml version="1.0" standalone="no"?>
<!DOCTYPE svg PUBLIC "-//W3C//DTD SVG 20010904//EN"
 "http://www.w3.org/TR/2001/REC-SVG-20010904/DTD/svg10.dtd">
<svg version="1.0" xmlns="http://www.w3.org/2000/svg"
 width="512.000000pt" height="512.000000pt" viewBox="0 0 512.000000 512.000000"
 preserveAspectRatio="xMidYMid meet">

<g transform="translate(0.000000,512.000000) scale(0.100000,-0.100000)"
fill="#000000" stroke="none">
<path d="M2370 5113 c-559 -53 -1006 -230 -1417 -562 -514 -413 -842 -1000
-934 -1671 -18 -125 -18 -515 0 -640 105 -762 511 -1409 1146 -1826 609 -400
1377 -517 2090 -317 929 260 1646 1043 1819 1987 26 138 46 322 46 419 l0 57
-148 0 -148 0 -12 -162 c-39 -527 -252 -1011 -613 -1392 -373 -394 -892 -646
-1429 -695 -738 -68 -1467 232 -1941 798 -702 837 -703 2063 -1 2901 740 884
2035 1069 2992 427 130 -87 211 -156 350 -296 l135 -136 -277 -3 -278 -2 0
-150 0 -150 520 0 520 0 -2 518 -3 517 -147 3 -148 3 0 -248 0 -247 -132 130
c-73 72 -164 155 -203 186 -397 314 -857 498 -1369 547 -101 10 -333 12 -416
4z"/>
<path d="M2615 3241 c-86 -14 -137 -32 -215 -72 -367 -190 -489 -635 -268
-985 59 -94 170 -194 269 -243 115 -56 184 -72 309 -72 177 -1 311 52 425 168
127 128 183 281 192 521 l6 152 -312 0 -311 0 0 -150 0 -150 150 0 c84 0 150
-4 150 -9 0 -23 -41 -101 -70 -135 -118 -134 -340 -132 -492 3 -64 57 -116
163 -124 251 -19 203 121 383 327 421 104 19 230 -20 351 -107 26 -19 50 -34
52 -34 11 0 167 243 160 249 -29 26 -174 117 -219 137 -114 50 -271 72 -380
55z"/>
<path d="M3590 2560 l0 -690 375 0 375 0 0 150 0 150 -225 0 -225 0 0 120 0
120 210 0 210 0 0 150 0 150 -210 0 -210 0 0 120 0 120 225 0 225 0 0 150 0
150 -375 0 -375 0 0 -690z"/>
<path d="M1212 3193 c-29 -80 -494 -1299 -498 -1305 -3 -5 69 -8 160 -8 99 0
166 4 166 10 0 5 18 57 41 115 l41 105 225 -2 225 -3 41 -110 42 -110 161 -3
162 -2 -160 422 c-88 233 -201 533 -252 668 l-92 245 -126 3 -126 3 -10 -28z
m188 -632 c27 -73 50 -137 50 -142 0 -5 -48 -9 -106 -9 -80 0 -105 3 -102 13
6 26 102 276 105 274 1 -2 25 -63 53 -136z"/>
</g>
</svg>
