<?xml version="1.0" standalone="no"?>
<!DOCTYPE svg PUBLIC "-//W3C//DTD SVG 20010904//EN"
 "http://www.w3.org/TR/2001/REC-SVG-20010904/DTD/svg10.dtd">
<svg version="1.0" xmlns="http://www.w3.org/2000/svg"
 width="512.000000pt" height="512.000000pt" viewBox="0 0 512.000000 512.000000"
 preserveAspectRatio="xMidYMid meet">

<g transform="translate(0.000000,512.000000) scale(0.100000,-0.100000)"
fill="#000000" stroke="none">
<path d="M2513 5008 c-31 -15 -133 -175 -195 -304 -60 -125 -70 -189 -44 -279
14 -46 29 -70 75 -116 32 -32 70 -61 85 -65 l26 -6 0 -108 0 -108 -146 -4
-146 -3 -29 -33 -29 -32 0 -520 0 -520 -150 0 -150 0 0 355 c0 458 5 445 -159
445 l-91 0 0 113 0 112 31 14 c119 52 188 201 155 331 -24 93 -153 333 -219
407 -27 31 -77 39 -114 19 -60 -30 -228 -325 -251 -441 -25 -118 35 -245 143
-306 l56 -31 -3 -107 -3 -106 -93 -3 c-109 -3 -137 -16 -152 -71 -6 -21 -10
-180 -10 -383 l0 -348 -233 0 c-195 0 -243 -3 -298 -18 -158 -44 -274 -153
-340 -317 l-24 -60 -3 -857 -3 -858 -69 0 c-58 0 -73 -4 -97 -24 l-28 -24 -3
-292 -3 -291 35 -35 34 -34 2492 0 2492 0 34 34 35 35 -3 291 -3 292 -28 24
c-24 20 -39 24 -97 24 l-69 0 -3 858 -3 857 -23 59 c-60 160 -190 280 -347
321 -45 11 -115 15 -292 15 l-233 0 0 344 c0 189 -3 357 -6 375 -4 17 -18 42
-31 56 -23 22 -34 25 -122 27 l-96 3 -3 106 -3 107 55 31 c123 69 177 216 131
356 -40 119 -190 367 -237 391 -38 20 -87 12 -116 -19 -65 -70 -204 -334 -222
-423 -26 -123 46 -265 159 -315 l31 -14 0 -112 0 -113 -91 0 c-165 0 -159 16
-159 -440 l0 -360 -150 0 -150 0 0 520 0 520 -29 32 -29 33 -146 3 -146 4 0
104 0 103 31 16 c129 67 197 224 154 356 -38 115 -171 347 -226 393 -32 27
-69 32 -106 14z m104 -383 c52 -107 53 -148 6 -185 -57 -44 -146 -13 -159 56
-5 29 2 51 39 129 26 52 51 95 57 95 6 0 31 -43 57 -95z m-1113 -283 c59 -118
63 -153 20 -196 -37 -37 -97 -36 -136 1 -41 40 -38 82 18 192 25 50 47 91 49
91 3 0 25 -40 49 -88z m2217 -16 c24 -49 39 -94 39 -116 0 -81 -105 -122 -164
-64 -43 43 -39 78 21 198 51 101 44 102 104 -18z m-911 -616 l0 -100 -250 0
-250 0 0 100 0 100 250 0 250 0 0 -100z m-1202 -297 l-3 -98 -150 0 -150 0 -3
98 -3 97 156 0 156 0 -3 -97z m2202 -3 l0 -101 -147 3 -148 3 -3 98 -3 97 151
0 150 0 0 -100z m-1000 -250 l0 -250 -250 0 -250 0 0 250 0 250 250 0 250 0 0
-250z m-1200 -150 l0 -101 -152 3 -153 3 -3 98 -3 97 156 0 155 0 0 -100z
m2200 0 l0 -100 -150 0 -150 0 0 100 0 100 150 0 150 0 0 -100z m714 -321 c67
-25 133 -86 166 -154 l25 -50 3 -537 3 -538 -53 0 c-97 0 -200 67 -250 163
-20 37 -23 63 -29 237 -4 107 -13 213 -19 235 -52 173 -190 304 -366 350 -240
62 -497 -79 -586 -322 -19 -51 -22 -86 -28 -298 -5 -215 -8 -245 -26 -286 -31
-66 -78 -114 -142 -146 -76 -37 -183 -40 -253 -5 -64 31 -117 86 -147 150 -21
47 -26 76 -32 201 -6 110 -13 159 -28 199 -131 339 -552 435 -813 185 -44 -41
-71 -80 -102 -141 l-42 -85 -6 -201 c-8 -241 -18 -276 -93 -352 -150 -149
-412 -94 -486 102 -18 50 -20 77 -20 303 0 278 -6 326 -54 426 -57 121 -157
211 -284 257 -49 18 -86 22 -260 26 l-203 4 6 42 c16 101 94 199 188 235 51
20 75 20 1964 20 1907 1 1912 1 1967 -20z m-3700 -508 c63 -31 115 -83 146
-146 24 -49 25 -59 30 -345 7 -321 12 -351 68 -440 100 -158 251 -243 431
-242 144 0 259 50 358 155 111 119 133 188 142 447 6 191 7 196 36 248 35 64
71 96 144 130 46 21 64 24 130 20 89 -5 143 -29 201 -89 57 -59 80 -129 80
-247 1 -183 46 -308 150 -412 90 -90 229 -150 350 -150 158 0 334 97 419 229
67 103 74 141 81 406 5 215 8 245 26 286 31 66 78 114 142 146 76 37 183 40
253 5 64 -31 117 -86 147 -151 24 -52 27 -70 32 -251 7 -214 16 -250 80 -350
83 -130 212 -202 403 -225 l47 -6 -2 -197 -3 -197 -2155 0 -2155 0 -3 703 -2
704 187 -4 c175 -3 191 -5 237 -27z m4096 -1731 l0 -150 -2360 0 -2360 0 0
150 0 150 2360 0 2360 0 0 -150z"/>
</g>
</svg>
