<svg width="20" height="20" viewBox="0 0 20 20" fill="none" xmlns="http://www.w3.org/2000/svg">
<g clip-path="url(#clip0_1_56)">
<path d="M16.6937 16.5062H3.30624C2.6432 16.5062 2.00732 16.2429 1.53848 15.774C1.06964 15.3052 0.806244 14.6693 0.806244 14.0062V5.99374C0.806244 5.3307 1.06964 4.69482 1.53848 4.22598C2.00732 3.75714 2.6432 3.49374 3.30624 3.49374H16.6937C17.3568 3.49374 17.9927 3.75714 18.4615 4.22598C18.9304 4.69482 19.1937 5.3307 19.1937 5.99374V14.0062C19.1937 14.6693 18.9304 15.3052 18.4615 15.774C17.9927 16.2429 17.3568 16.5062 16.6937 16.5062ZM3.30624 4.11874C2.80896 4.11874 2.33205 4.31629 1.98042 4.66792C1.62879 5.01955 1.43124 5.49646 1.43124 5.99374V14.0062C1.43124 14.5035 1.62879 14.9804 1.98042 15.3321C2.33205 15.6837 2.80896 15.8812 3.30624 15.8812H16.6937C17.191 15.8812 17.6679 15.6837 18.0196 15.3321C18.3712 14.9804 18.5687 14.5035 18.5687 14.0062V5.99374C18.5687 5.49646 18.3712 5.01955 18.0196 4.66792C17.6679 4.31629 17.191 4.11874 16.6937 4.11874H3.30624Z" fill="#222222" stroke="black" stroke-width="0.5"/>
<path d="M10 11.7438C9.45765 11.7469 8.92898 11.5736 8.49375 11.25L1.19375 5.72188C1.1544 5.70054 1.1201 5.671 1.09316 5.63525C1.06623 5.5995 1.04728 5.55838 1.03762 5.51468C1.02795 5.47097 1.02779 5.4257 1.03713 5.38193C1.04648 5.33815 1.06512 5.2969 1.0918 5.26095C1.11847 5.22501 1.15256 5.19522 1.19175 5.17359C1.23094 5.15196 1.27432 5.13901 1.31895 5.1356C1.36358 5.13219 1.40842 5.13841 1.45044 5.15383C1.49246 5.16926 1.53067 5.19353 1.5625 5.22501L8.86875 10.7406C9.19442 10.987 9.59162 11.1203 10 11.1203C10.4084 11.1203 10.8056 10.987 11.1312 10.7406L18.4375 5.22501C18.4699 5.19799 18.5075 5.17783 18.5479 5.16572C18.5883 5.15362 18.6308 5.14982 18.6727 5.15457C18.7146 5.15932 18.7552 5.17252 18.7919 5.19336C18.8286 5.2142 18.8607 5.24226 18.8862 5.27584C18.9118 5.30942 18.9303 5.34783 18.9406 5.38875C18.9509 5.42967 18.9528 5.47226 18.9462 5.51394C18.9396 5.55562 18.9246 5.59554 18.9022 5.63127C18.8797 5.66701 18.8503 5.69783 18.8156 5.72188L11.5062 11.25C11.071 11.5736 10.5423 11.7469 10 11.7438Z" fill="#222222" stroke="black" stroke-width="0.5"/>
<path d="M1.30312 15.2C1.24038 15.1992 1.17933 15.1796 1.12792 15.1436C1.0765 15.1076 1.0371 15.057 1.01485 14.9984C0.992598 14.9397 0.988521 14.8757 1.00315 14.8147C1.01778 14.7536 1.05044 14.6984 1.09687 14.6562L6.84375 9.52812C6.90632 9.47301 6.98823 9.44501 7.07145 9.45028C7.15467 9.45555 7.23238 9.49367 7.2875 9.55625C7.34262 9.61882 7.37062 9.70073 7.36534 9.78395C7.36007 9.86717 7.32195 9.94488 7.25937 10L1.5125 15.1219C1.45472 15.1728 1.38016 15.2007 1.30312 15.2ZM18.6969 15.2C18.6198 15.2007 18.5453 15.1728 18.4875 15.1219L12.7406 10C12.7075 9.97345 12.6802 9.94044 12.6603 9.90299C12.6404 9.86554 12.6283 9.82442 12.6248 9.78215C12.6213 9.73988 12.6264 9.69733 12.6399 9.65711C12.6533 9.61688 12.6748 9.57982 12.7031 9.54817C12.7313 9.51653 12.7657 9.49096 12.8042 9.47304C12.8426 9.45512 12.8843 9.44521 12.9267 9.44392C12.9691 9.44262 13.0113 9.44998 13.0508 9.46553C13.0902 9.48108 13.1261 9.5045 13.1562 9.53437L18.9031 14.6562C18.9648 14.7114 19.002 14.7888 19.0067 14.8714C19.0114 14.954 18.9831 15.0351 18.9281 15.0969C18.8989 15.1292 18.8632 15.1551 18.8234 15.1729C18.7836 15.1907 18.7405 15.1999 18.6969 15.2Z" fill="#222222" stroke="black" stroke-width="0.5"/>
</g>
<defs>
<clipPath id="clip0_1_56">
<rect width="20" height="20" fill="white"/>
</clipPath>
</defs>
</svg>
