<?xml version="1.0" standalone="no"?>
<!DOCTYPE svg PUBLIC "-//W3C//DTD SVG 20010904//EN"
 "http://www.w3.org/TR/2001/REC-SVG-20010904/DTD/svg10.dtd">
<svg version="1.0" xmlns="http://www.w3.org/2000/svg"
 width="512.000000pt" height="512.000000pt" viewBox="0 0 512.000000 512.000000"
 preserveAspectRatio="xMidYMid meet">

<g transform="translate(0.000000,512.000000) scale(0.100000,-0.100000)"
fill="#000000" stroke="none">
<path d="M2365 5074 c-379 -39 -650 -117 -960 -278 -729 -376 -1216 -1060
-1342 -1886 -24 -161 -24 -539 0 -700 128 -829 611 -1509 1342 -1886 381 -197
723 -279 1160 -278 423 0 758 79 1127 264 480 242 856 615 1104 1095 139 268
216 508 261 810 24 166 24 523 0 690 -112 762 -542 1415 -1193 1811 -286 173
-602 287 -944 339 -101 15 -468 28 -555 19z m316 -1154 c190 -36 353 -192 404
-386 12 -47 15 -134 15 -461 0 -255 -4 -421 -11 -455 -39 -189 -208 -358 -397
-397 -267 -56 -528 103 -606 368 -24 82 -24 881 0 962 25 85 62 148 122 211
130 136 295 191 473 158z m-797 -1265 c16 -159 80 -291 200 -411 91 -90 172
-140 286 -176 61 -19 97 -23 195 -22 104 0 131 4 200 28 117 40 180 80 271
170 119 120 184 252 200 411 l7 65 118 0 119 0 0 -42 c0 -64 -34 -214 -65
-293 -62 -156 -187 -315 -320 -410 -89 -64 -218 -123 -323 -148 l-92 -22 0
-187 0 -188 175 0 175 0 0 -120 0 -120 -470 0 -470 0 0 120 0 120 175 0 175 0
0 188 0 187 -92 22 c-286 69 -533 283 -643 558 -31 79 -65 229 -65 293 l0 42
119 0 118 0 7 -65z"/>
</g>
</svg>
