<?xml version="1.0" standalone="no"?>
<!DOCTYPE svg PUBLIC "-//W3C//DTD SVG 20010904//EN"
 "http://www.w3.org/TR/2001/REC-SVG-20010904/DTD/svg10.dtd">
<svg version="1.0" xmlns="http://www.w3.org/2000/svg"
 width="604.000000pt" height="604.000000pt" viewBox="0 0 604.000000 604.000000"
 preserveAspectRatio="xMidYMid meet">

<g transform="translate(0.000000,604.000000) scale(0.100000,-0.100000)"
fill="#000000" stroke="none">
<path d="M2628 6025 c-468 -66 -889 -224 -1268 -477 -183 -122 -283 -202 -439
-353 -498 -483 -799 -1085 -898 -1795 -24 -175 -24 -585 0 -760 99 -710 400
-1312 898 -1795 156 -151 256 -231 439 -353 353 -235 717 -379 1170 -463 95
-17 167 -22 422 -26 339 -6 425 1 658 47 389 78 743 224 1070 442 183 122 283
202 439 353 498 483 799 1085 898 1795 24 175 24 585 0 760 -99 710 -400 1312
-898 1795 -156 151 -256 231 -439 353 -352 235 -717 379 -1170 463 -99 18
-161 22 -450 25 -246 2 -361 -1 -432 -11z m742 -879 c238 -55 443 -233 532
-462 16 -42 32 -98 35 -125 l6 -49 -292 0 -293 0 -29 -29 c-39 -39 -39 -80 0
-123 l29 -33 294 -3 293 -2 3 -134 3 -135 -293 -3 c-314 -3 -324 -5 -347 -55
-18 -40 -13 -73 18 -104 l29 -29 296 0 296 0 0 -140 0 -139 -301 -3 -301 -3
-24 -28 c-26 -31 -30 -62 -12 -102 24 -52 43 -55 353 -55 l285 0 0 -140 0
-140 -299 0 -299 0 -26 -31 c-33 -39 -33 -79 0 -118 l26 -31 293 0 c162 0 296
-3 298 -7 9 -15 -33 -156 -68 -229 -71 -148 -188 -264 -340 -340 -153 -75
-178 -79 -515 -79 -337 0 -362 4 -515 79 -150 75 -269 193 -340 340 -35 73
-77 214 -68 229 2 4 136 7 298 7 l293 0 26 31 c15 17 26 43 26 59 0 16 -11 42
-26 59 l-26 31 -299 0 -299 0 0 140 0 140 285 0 c314 0 331 3 355 59 15 37 6
83 -22 107 -18 17 -44 19 -319 22 l-299 3 0 139 0 140 296 0 296 0 29 29 c31
31 36 64 18 104 -23 50 -33 52 -347 55 l-293 3 3 135 3 134 293 2 294 3 29 33
c36 40 38 81 5 119 l-24 28 -299 5 -298 5 3 30 c6 51 58 192 93 253 19 31 75
98 125 148 78 79 104 98 185 137 88 42 189 71 284 81 22 2 146 3 275 1 179 -2
253 -6 310 -19z m-1611 -1581 c16 -8 33 -27 39 -42 7 -18 13 -149 15 -353 4
-317 4 -327 31 -419 110 -386 423 -670 817 -742 103 -19 615 -19 718 0 395 72
707 356 818 743 25 90 26 102 30 423 5 359 7 372 62 395 39 16 76 6 107 -27
l24 -26 0 -296 c0 -392 -21 -514 -124 -726 -77 -156 -155 -260 -291 -383 -185
-169 -452 -282 -702 -299 l-93 -6 0 -279 0 -278 293 0 c357 0 374 -3 457 -88
59 -60 81 -110 82 -183 1 -52 -23 -86 -69 -98 -52 -15 -1854 -15 -1906 0 -46
12 -70 46 -69 98 1 74 23 123 82 183 85 85 102 88 457 88 l293 0 0 278 0 279
-92 6 c-134 9 -284 50 -414 112 -142 67 -217 118 -323 219 -193 185 -306 393
-360 665 -19 91 -21 139 -21 405 0 270 2 303 18 322 36 44 74 54 121 29z"/>
</g>
</svg>
