<?xml version="1.0" standalone="no"?>
<!DOCTYPE svg PUBLIC "-//W3C//DTD SVG 20010904//EN"
 "http://www.w3.org/TR/2001/REC-SVG-20010904/DTD/svg10.dtd">
<svg version="1.0" xmlns="http://www.w3.org/2000/svg"
 width="512.000000pt" height="512.000000pt" viewBox="0 0 512.000000 512.000000"
 preserveAspectRatio="xMidYMid meet">

<g transform="translate(0.000000,512.000000) scale(0.100000,-0.100000)"
fill="#000000" stroke="none">
<path d="M2370 5114 c-19 -2 -78 -9 -130 -15 -791 -90 -1522 -586 -1924 -1305
-146 -262 -252 -587 -297 -914 -20 -143 -18 -527 4 -670 90 -586 331 -1065
738 -1467 63 -62 155 -145 204 -185 641 -512 1494 -684 2290 -461 929 260
1646 1043 1819 1987 156 845 -103 1682 -705 2285 -399 398 -879 639 -1449 726
-100 15 -472 28 -550 19z m264 -1206 c55 -16 138 -99 154 -154 17 -60 17
-2328 0 -2388 -26 -86 -136 -166 -228 -166 -92 0 -202 80 -228 166 -17 60 -17
2328 0 2388 15 51 99 137 148 153 48 15 105 15 154 1z m-800 -480 c55 -16 138
-99 154 -154 17 -59 17 -1369 0 -1428 -26 -86 -136 -166 -228 -166 -92 0 -202
80 -228 166 -17 59 -17 1369 0 1428 15 51 99 137 148 153 48 15 105 15 154 1z
m1600 0 c55 -16 138 -99 154 -154 17 -59 17 -1369 0 -1428 -26 -86 -136 -166
-228 -166 -92 0 -202 80 -228 166 -17 59 -17 1369 0 1428 15 51 99 137 148
153 48 15 105 15 154 1z m-2400 -400 c55 -16 138 -99 154 -154 17 -57 17 -571
0 -628 -26 -86 -136 -166 -228 -166 -92 0 -202 80 -228 166 -17 57 -17 571 0
628 15 51 99 137 148 153 48 15 105 15 154 1z m3200 0 c55 -16 138 -99 154
-154 8 -28 12 -129 12 -314 0 -185 -4 -286 -12 -314 -26 -86 -136 -166 -228
-166 -92 0 -202 80 -228 166 -17 57 -17 571 0 628 15 51 99 137 148 153 48 15
105 15 154 1z"/>
</g>
</svg>
