<?xml version="1.0" standalone="no"?>
<!DOCTYPE svg PUBLIC "-//W3C//DTD SVG 20010904//EN"
 "http://www.w3.org/TR/2001/REC-SVG-20010904/DTD/svg10.dtd">
<svg version="1.0" xmlns="http://www.w3.org/2000/svg"
 width="765.000000pt" height="426.000000pt" viewBox="0 0 765.000000 426.000000"
 preserveAspectRatio="xMidYMid meet">

<g transform="translate(0.000000,426.000000) scale(0.100000,-0.100000)"
fill="#000000" stroke="none">
<path d="M772 4235 c-388 -115 -674 -431 -753 -830 -21 -104 -21 -2426 0
-2530 57 -286 224 -537 464 -695 102 -68 200 -111 336 -149 l96 -26 2900 0
c2709 0 2905 1 2977 17 426 95 741 410 836 836 16 71 17 177 17 1277 0 1305 2
1254 -57 1425 -107 309 -345 547 -664 663 l-89 32 -2990 2 -2990 2 -83 -24z
m4261 -1256 c47 -13 109 -67 133 -117 18 -35 19 -78 22 -685 2 -422 -1 -668
-8 -705 -30 -164 -209 -233 -335 -129 -78 64 -75 28 -75 797 0 648 1 687 19
726 29 65 112 121 181 123 14 1 42 -4 63 -10z m1068 0 c52 -16 108 -64 130
-113 17 -39 19 -81 19 -726 0 -769 3 -733 -75 -797 -126 -104 -305 -35 -335
129 -7 37 -10 283 -8 705 3 721 0 682 72 752 56 54 124 71 197 50z m-4611
-525 c19 -11 45 -35 57 -54 21 -30 23 -45 23 -165 0 -120 -2 -135 -23 -165
-43 -65 -74 -75 -244 -79 l-153 -3 0 -94 0 -94 -85 0 -85 0 0 341 0 341 238
-4 c218 -3 240 -5 272 -24z m529 8 c5 -9 61 -154 124 -322 64 -168 119 -313
122 -323 7 -16 0 -18 -90 -15 l-98 3 -20 58 -19 58 -121 -3 -120 -3 -20 -57
-19 -58 -94 0 c-52 0 -94 3 -94 8 0 4 56 155 125 336 69 182 125 331 125 333
0 2 43 3 95 3 80 0 96 -3 104 -18z m489 -246 c1 -171 6 -264 13 -273 8 -9 41
-13 114 -13 73 0 106 4 114 13 7 9 12 102 13 273 l3 259 88 3 88 3 -3 -288
c-3 -269 -4 -290 -23 -323 -41 -68 -66 -75 -280 -75 -214 0 -239 7 -280 75
-19 33 -20 54 -23 323 l-3 288 88 -3 88 -3 3 -259z m1082 194 l0 -70 -160 0
c-150 0 -161 -1 -181 -21 -17 -17 -20 -29 -16 -56 4 -20 9 -38 12 -42 4 -3 71
-8 149 -12 160 -6 194 -17 231 -79 29 -51 29 -209 0 -260 -39 -66 -69 -75
-247 -74 -87 1 -192 5 -233 9 l-75 7 0 65 0 65 185 -8 c215 -8 215 -8 215 71
l0 53 -152 4 c-131 3 -158 6 -186 23 -50 30 -72 86 -72 186 0 94 16 139 62
172 39 29 83 35 286 36 l182 1 0 -70z m710 0 l0 -70 -180 0 -180 0 0 -65 0
-65 140 0 140 0 0 -70 0 -70 -140 0 -140 0 0 -65 0 -65 180 0 180 0 0 -70 0
-70 -270 0 -270 0 0 333 c0 184 3 337 7 340 3 4 125 7 270 7 l263 0 0 -70z"/>
<path d="M1150 2235 l0 -105 108 0 c135 0 142 5 142 103 0 99 -11 107 -145
107 l-105 0 0 -105z"/>
<path d="M1882 2162 c-18 -54 -32 -101 -32 -105 0 -4 32 -7 71 -7 53 0 70 3
67 13 -3 6 -18 50 -33 97 -15 47 -30 88 -34 92 -4 4 -21 -36 -39 -90z"/>
</g>
</svg>
