<?xml version="1.0" standalone="no"?>
<!DOCTYPE svg PUBLIC "-//W3C//DTD SVG 20010904//EN"
 "http://www.w3.org/TR/2001/REC-SVG-20010904/DTD/svg10.dtd">
<svg version="1.0" xmlns="http://www.w3.org/2000/svg"
 width="512.000000pt" height="512.000000pt" viewBox="0 0 512.000000 512.000000"
 preserveAspectRatio="xMidYMid meet">

<g transform="translate(0.000000,512.000000) scale(0.100000,-0.100000)"
fill="#000000" stroke="none">
<path d="M2325 5109 c-476 -44 -922 -218 -1313 -511 -124 -93 -341 -304 -445
-433 -538 -667 -706 -1566 -445 -2383 94 -296 250 -585 449 -831 100 -125 319
-337 441 -429 259 -194 561 -344 857 -427 773 -214 1594 -58 2236 424 121 92
319 282 427 411 290 346 491 798 559 1253 101 682 -74 1366 -493 1925 -147
196 -405 439 -616 580 -484 324 -1078 475 -1657 421z m431 -420 c756 -73 1407
-529 1735 -1214 164 -343 235 -738 198 -1111 -73 -756 -529 -1407 -1214 -1735
-586 -280 -1262 -276 -1850 11 -676 331 -1121 974 -1194 1724 -67 683 221
1387 746 1824 453 377 1016 556 1579 501z"/>
<path d="M2078 3510 c-52 -16 -98 -52 -126 -98 l-27 -47 0 -805 0 -805 28 -47
c29 -50 86 -91 145 -103 81 -17 187 40 223 119 18 39 19 84 19 836 0 753 -1
797 -19 835 -43 93 -149 143 -243 115z"/>
<path d="M2915 3505 c-48 -19 -90 -58 -116 -107 -18 -36 -19 -70 -19 -838 0
-884 -4 -827 63 -898 38 -40 121 -67 175 -57 61 11 119 51 149 103 l28 47 0
805 0 805 -28 47 c-50 85 -162 127 -252 93z"/>
</g>
</svg>
