<?xml version="1.0" standalone="no"?>
<!DOCTYPE svg PUBLIC "-//W3C//DTD SVG 20010904//EN"
 "http://www.w3.org/TR/2001/REC-SVG-20010904/DTD/svg10.dtd">
<svg version="1.0" xmlns="http://www.w3.org/2000/svg"
 width="854.000000pt" height="512.000000pt" viewBox="0 0 854.000000 512.000000"
 preserveAspectRatio="xMidYMid meet">

<g transform="translate(0.000000,512.000000) scale(0.100000,-0.100000)"
fill="#000000" stroke="none">
<path d="M3085 4690 l-1750 -5 -88 -28 c-347 -109 -601 -349 -715 -677 -59
-171 -57 -120 -57 -1420 0 -1300 -2 -1249 57 -1420 77 -221 225 -411 421 -540
102 -68 200 -111 336 -149 l96 -26 2900 0 c2709 0 2905 1 2977 17 365 82 658
331 785 668 72 192 68 111 68 1445 0 1305 2 1254 -57 1425 -105 303 -353 554
-649 656 -180 61 -94 58 -1389 59 -652 0 -1972 -2 -2935 -5z m2650 -1271 c48
-12 1038 -579 1097 -628 20 -17 50 -58 67 -92 27 -53 31 -73 31 -139 0 -66 -4
-86 -31 -139 -17 -34 -47 -75 -67 -92 -68 -56 -1051 -617 -1104 -630 -97 -23
-201 7 -280 79 -55 51 -87 114 -99 195 -11 81 -11 1093 1 1175 27 193 203 317
385 271z m-3325 -545 c19 -11 45 -35 57 -54 21 -30 23 -45 23 -165 0 -120 -2
-135 -23 -165 -43 -65 -74 -75 -244 -79 l-153 -3 0 -94 0 -94 -85 0 -85 0 0
341 0 341 238 -4 c218 -3 240 -5 272 -24z m378 -246 l2 -268 175 0 175 0 0
-70 0 -70 -265 0 -265 0 0 340 0 341 88 -3 87 -3 3 -267z m955 -62 c70 -184
127 -337 127 -340 0 -3 -42 -6 -94 -6 l-93 0 -22 60 -22 60 -118 0 -118 0 -22
-60 -22 -60 -96 0 c-72 0 -94 3 -91 13 3 6 61 159 129 340 l124 327 96 0 96 0
126 -334z m319 172 l81 -163 78 163 79 162 90 0 c49 0 90 -3 90 -7 0 -3 -56
-116 -125 -249 l-125 -243 0 -91 0 -90 -90 0 -90 0 0 94 0 93 -125 242 c-69
133 -125 244 -125 247 0 2 40 4 90 4 l90 0 82 -162z"/>
<path d="M2070 2655 l0 -105 108 0 c135 0 142 5 142 103 0 99 -11 107 -145
107 l-105 0 0 -105z"/>
<path d="M3486 2583 c-16 -49 -31 -94 -33 -100 -4 -10 13 -13 66 -13 39 0 71
3 71 8 0 14 -65 192 -70 192 -3 0 -19 -39 -34 -87z"/>
</g>
</svg>
