<?xml version="1.0" standalone="no"?>
<!DOCTYPE svg PUBLIC "-//W3C//DTD SVG 20010904//EN"
 "http://www.w3.org/TR/2001/REC-SVG-20010904/DTD/svg10.dtd">
<svg version="1.0" xmlns="http://www.w3.org/2000/svg"
 width="512.000000pt" height="512.000000pt" viewBox="0 0 512.000000 512.000000"
 preserveAspectRatio="xMidYMid meet">

<g transform="translate(0.000000,512.000000) scale(0.100000,-0.100000)"
fill="#000000" stroke="none">
<path d="M919 4141 l-29 -29 0 -195 0 -195 -192 -4 c-171 -3 -198 -5 -239 -24
-58 -27 -110 -79 -140 -140 l-24 -49 0 -1170 0 -1170 24 -48 c28 -56 107 -130
159 -149 30 -11 441 -13 2222 -13 2011 0 2188 1 2221 17 56 25 120 88 145 143
l24 50 0 1170 0 1170 -24 50 c-30 65 -104 131 -169 150 -36 11 -99 15 -223 15
l-173 0 -3 201 -3 201 -28 24 -28 24 -620 0 c-656 0 -666 -1 -683 -45 -3 -9
-6 -104 -6 -211 l0 -194 -435 0 -435 0 0 196 0 196 -29 29 -29 29 -627 0 -627
0 -29 -29z m1181 -276 l0 -145 -525 0 -525 0 0 145 0 145 525 0 525 0 0 -145z
m2240 0 l0 -145 -525 0 -525 0 0 145 0 145 525 0 525 0 0 -145z m523 -319 c72
-30 67 63 67 -1206 0 -1259 4 -1182 -64 -1214 -31 -15 -214 -16 -2170 -16
-2330 0 -2183 -4 -2223 56 -17 27 -18 83 -21 1150 -2 884 0 1130 10 1160 8 24
26 47 47 61 l34 23 2144 0 c1787 0 2149 -2 2176 -14z"/>
<path d="M643 3376 l-28 -24 0 -1017 0 -1017 28 -24 28 -24 904 0 904 0 28 24
28 24 0 1017 0 1017 -28 24 -28 24 -904 0 -904 0 -28 -24z m1737 -1041 l0
-905 -802 2 -803 3 -3 903 -2 902 805 0 805 0 0 -905z"/>
<path d="M1322 2770 c-93 -72 -110 -98 -92 -144 12 -34 45 -49 91 -43 l39 5 0
-350 0 -350 29 -29 c16 -16 37 -29 46 -29 24 0 72 27 79 45 3 9 6 219 6 466
l0 450 -25 24 c-41 42 -72 33 -173 -45z"/>
<path d="M2879 3371 l-29 -29 0 -1007 0 -1007 29 -29 30 -29 911 2 912 3 19
24 c18 23 19 54 19 1041 l0 1019 -26 20 c-27 21 -31 21 -931 21 l-905 0 -29
-29z m1731 -1036 l0 -905 -800 0 -800 0 0 905 0 905 800 0 800 0 0 -905z"/>
<path d="M3398 2779 c-99 -73 -108 -83 -108 -126 0 -50 31 -76 85 -71 l44 3 3
-353 3 -354 28 -24 c34 -29 66 -31 101 -3 l26 20 0 464 0 464 -26 20 c-15 12
-37 21 -49 21 -13 0 -61 -28 -107 -61z"/>
<path d="M3943 2822 c-95 -34 -169 -112 -194 -205 -6 -24 -9 -143 -7 -305 3
-255 4 -269 26 -309 35 -66 79 -110 140 -140 76 -37 183 -39 254 -4 60 29 119
88 149 149 23 46 24 53 24 327 0 276 0 281 -24 329 -69 140 -228 208 -368 158z
m176 -169 c56 -42 61 -66 61 -318 0 -199 -2 -235 -18 -264 -50 -99 -177 -105
-240 -11 -23 34 -23 37 -20 286 3 278 1 270 73 316 37 24 105 19 144 -9z"/>
</g>
</svg>
